<?xml version="1.0" encoding="UTF-8" standalone="no"?>
<!-- Created with Inkscape (http://www.inkscape.org/) -->

<svg
   xmlns:dc="http://purl.org/dc/elements/1.1/"
   xmlns:cc="http://creativecommons.org/ns#"
   xmlns:rdf="http://www.w3.org/1999/02/22-rdf-syntax-ns#"
   xmlns:svg="http://www.w3.org/2000/svg"
   xmlns="http://www.w3.org/2000/svg"
   xmlns:xlink="http://www.w3.org/1999/xlink"
   xmlns:sodipodi="http://sodipodi.sourceforge.net/DTD/sodipodi-0.dtd"
   xmlns:inkscape="http://www.inkscape.org/namespaces/inkscape"
   width="48px"
   height="48px"
   id="svg2985"
   version="1.1"
   inkscape:version="0.48.1 r9760"
   sodipodi:docname="lock.svg"
   inkscape:export-filename="/home/penghuang/sources/garbage/arts/lock-xhdpi.png"
   inkscape:export-xdpi="180"
   inkscape:export-ydpi="180">
  <defs
     id="defs2987">
    <linearGradient
       id="linearGradient5250">
      <stop
         style="stop-color:#ffffff;stop-opacity:1;"
         offset="0"
         id="stop5252" />
      <stop
         style="stop-color:#ffffff;stop-opacity:0;"
         offset="1"
         id="stop5254" />
    </linearGradient>
    <linearGradient
       id="linearGradient3767">
      <stop
         style="stop-color:#929292;stop-opacity:1;"
         offset="0"
         id="stop3769" />
      <stop
         style="stop-color:#a1a191;stop-opacity:1;"
         offset="1"
         id="stop3771" />
    </linearGradient>
    <linearGradient
       id="linearGradient6657">
      <stop
         id="stop6659"
         offset="0"
         style="stop-color:#8d8d8d;stop-opacity:1" />
      <stop
         id="stop6661"
         offset="1"
         style="stop-color:#4a4a4a;stop-opacity:1;" />
    </linearGradient>
    <linearGradient
       id="linearGradient6520">
      <stop
         style="stop-color:#bcbcbc;stop-opacity:1;"
         offset="0"
         id="stop6522" />
      <stop
         style="stop-color:#4a4a4a;stop-opacity:1;"
         offset="1"
         id="stop6524" />
    </linearGradient>
    <linearGradient
       inkscape:collect="always"
       xlink:href="#linearGradient6520"
       id="linearGradient6528"
       x1="10"
       y1="18.59375"
       x2="28.09375"
       y2="18.59375"
       gradientUnits="userSpaceOnUse"
       gradientTransform="translate(4.40625,3.2857144)" />
    <linearGradient
       inkscape:collect="always"
       xlink:href="#linearGradient3767"
       id="linearGradient3773"
       x1="3.55625"
       y1="23.046875"
       x2="47.0375"
       y2="23.046875"
       gradientUnits="userSpaceOnUse" />
    <linearGradient
       inkscape:collect="always"
       xlink:href="#linearGradient3767"
       id="linearGradient3776"
       gradientUnits="userSpaceOnUse"
       x1="3.55625"
       y1="23.046875"
       x2="47.0375"
       y2="23.046875" />
    <linearGradient
       inkscape:collect="always"
       xlink:href="#linearGradient3767"
       id="linearGradient3779"
       gradientUnits="userSpaceOnUse"
       x1="23"
       y1="43"
       x2="23"
       y2="3" />
    <linearGradient
       inkscape:collect="always"
       xlink:href="#linearGradient3767"
       id="linearGradient3787"
       gradientUnits="userSpaceOnUse"
       x1="23"
       y1="43"
       x2="23"
       y2="3" />
    <linearGradient
       inkscape:collect="always"
       xlink:href="#linearGradient3767"
       id="linearGradient3790"
       gradientUnits="userSpaceOnUse"
       x1="23"
       y1="43"
       x2="23"
       y2="3" />
    <linearGradient
       inkscape:collect="always"
       xlink:href="#linearGradient3767"
       id="linearGradient3794"
       gradientUnits="userSpaceOnUse"
       x1="23"
       y1="43"
       x2="23"
       y2="3" />
    <linearGradient
       inkscape:collect="always"
       xlink:href="#linearGradient3767"
       id="linearGradient3841"
       gradientUnits="userSpaceOnUse"
       x1="23"
       y1="43"
       x2="23"
       y2="3"
       gradientTransform="translate(-0.85714284,0.78571427)" />
    <linearGradient
       inkscape:collect="always"
       xlink:href="#linearGradient3767-2"
       id="linearGradient3841-1"
       gradientUnits="userSpaceOnUse"
       x1="23"
       y1="43"
       x2="23"
       y2="3"
       gradientTransform="translate(-0.85714284,0.78571427)" />
    <linearGradient
       id="linearGradient3767-2">
      <stop
         style="stop-color:#828282;stop-opacity:1;"
         offset="0"
         id="stop3769-6" />
      <stop
         style="stop-color:#919191;stop-opacity:1;"
         offset="1"
         id="stop3771-4" />
    </linearGradient>
    <linearGradient
       inkscape:collect="always"
       xlink:href="#linearGradient5250"
       id="linearGradient5256"
       x1="9"
       y1="14"
       x2="39"
       y2="14"
       gradientUnits="userSpaceOnUse"
       gradientTransform="matrix(1.9,0,0,1.35,-22.6,-7.4)" />
    <linearGradient
       inkscape:collect="always"
       xlink:href="#linearGradient3767-8"
       id="linearGradient3841-9"
       gradientUnits="userSpaceOnUse"
       x1="23"
       y1="43"
       x2="23"
       y2="3"
       gradientTransform="translate(-0.85714284,0.78571427)" />
    <linearGradient
       id="linearGradient3767-8">
      <stop
         style="stop-color:#828282;stop-opacity:1;"
         offset="0"
         id="stop3769-62" />
      <stop
         style="stop-color:#919191;stop-opacity:1;"
         offset="1"
         id="stop3771-2" />
    </linearGradient>
    <linearGradient
       y2="3"
       x2="23"
       y1="43"
       x1="23"
       gradientTransform="translate(-0.6874948,0.7812457)"
       gradientUnits="userSpaceOnUse"
       id="linearGradient5273"
       xlink:href="#linearGradient3767-8"
       inkscape:collect="always" />
    <linearGradient
       inkscape:collect="always"
       xlink:href="#linearGradient5250"
       id="linearGradient5293"
       gradientUnits="userSpaceOnUse"
       gradientTransform="matrix(1.9,0,0,1.35,-22.827676,-7.4625)"
       x1="9"
       y1="14"
       x2="39"
       y2="14" />
  </defs>
  <sodipodi:namedview
     id="base"
     pagecolor="#ffffff"
     bordercolor="#666666"
     borderopacity="1.0"
     inkscape:pageopacity="0.0"
     inkscape:pageshadow="2"
     inkscape:zoom="14"
     inkscape:cx="30.9938"
     inkscape:cy="24.650051"
     inkscape:current-layer="layer1"
     showgrid="true"
     inkscape:grid-bbox="true"
     inkscape:document-units="px"
     inkscape:snap-grids="true"
     inkscape:snap-to-guides="true"
     inkscape:window-width="1440"
     inkscape:window-height="842"
     inkscape:window-x="0"
     inkscape:window-y="26"
     inkscape:window-maximized="1">
    <inkscape:grid
       type="xygrid"
       id="grid3032"
       empspacing="5"
       visible="true"
       enabled="true"
       snapvisiblegridlinesonly="true" />
  </sodipodi:namedview>
  <metadata
     id="metadata2990">
    <rdf:RDF>
      <cc:Work
         rdf:about="">
        <dc:format>image/svg+xml</dc:format>
        <dc:type
           rdf:resource="http://purl.org/dc/dcmitype/StillImage" />
        <dc:title></dc:title>
      </cc:Work>
    </rdf:RDF>
  </metadata>
  <g
     id="layer1"
     inkscape:label="Layer 1"
     inkscape:groupmode="layer"
     style="display:inline">
    <path
       sodipodi:type="inkscape:offset"
       inkscape:radius="0.23095477"
       inkscape:original="M 14.3125 1.125 C 3.309952 1.125 -5.59375 10.028702 -5.59375 21.03125 C -5.59375 32.033798 3.309952 40.96875 14.3125 40.96875 C 20.18989 40.96875 25.447302 38.392028 29.09375 34.34375 L 25.78125 31.8125 C 22.94867 34.743342 18.991613 36.5625 14.59375 36.5625 C 5.9902538 36.5625 -1 29.603496 -1 21 C -1 12.396504 5.9902538 5.4375 14.59375 5.4375 C 23.197246 5.4375 30.15625 12.396504 30.15625 21 L 26.6875 21 L 32.1875 28 L 37.6875 21 L 34.25 21 C 34.233115 10.011835 25.304638 1.125 14.3125 1.125 z M 14.6875 11.25 C 13.497671 11.25 12.341968 11.443491 11.4375 12.21875 C 10.533031 12.994009 10.09375 14.23868 10.09375 15.84375 L 10.09375 18.28125 L 9.3125 18.28125 C 8.71527 18.28125 8.21875 18.79761 8.21875 19.4375 L 8.21875 27.9375 C 8.21875 28.57739 8.71527 29.0625 9.3125 29.0625 L 20.15625 29.0625 C 20.75348 29.0625 21.21875 28.57739 21.21875 27.9375 L 21.21875 19.4375 C 21.21875 18.79761 20.75348 18.28125 20.15625 18.28125 L 19.3125 18.28125 L 19.3125 15.84375 C 19.3125 14.23868 18.841969 12.994009 17.9375 12.21875 C 17.033032 11.443491 15.877328 11.25 14.6875 11.25 z M 14.6875 13.25 C 15.653736 13.25 16.303014 13.415976 16.65625 13.71875 C 17.009486 14.021524 17.28125 14.574067 17.28125 15.84375 L 17.28125 18.28125 L 12.125 18.28125 L 12.125 15.84375 C 12.125 14.574067 12.396763 14.021524 12.75 13.71875 C 13.103236 13.415976 13.721263 13.25 14.6875 13.25 z "
       style="font-size:medium;font-style:normal;font-variant:normal;font-weight:normal;font-stretch:normal;text-indent:0;text-align:start;text-decoration:none;line-height:normal;letter-spacing:normal;word-spacing:normal;text-transform:none;direction:ltr;block-progression:tb;writing-mode:lr-tb;text-anchor:start;baseline-shift:baseline;color:#000000;fill:#000000;fill-opacity:1;stroke:none;stroke-width:0.2;marker:none;visibility:visible;display:inline;overflow:visible;enable-background:accumulate;font-family:Sans;-inkscape-font-specification:Sans"
       id="path5246"
       d="m 14.3125,0.90625 c -11.1271466,0 -20.125,8.9978534 -20.125,20.125 0,11.127147 8.9974161,20.15625 20.125,20.15625 5.944892,0 11.249786,-2.593409 14.9375,-6.6875 a 0.23097786,0.23097786 0 0 0 0.03125,-0.03125 0.23097786,0.23097786 0 0 0 0.03125,-0.0625 0.23097786,0.23097786 0 0 0 0,-0.0625 0.23097786,0.23097786 0 0 0 0,-0.09375 0.23097786,0.23097786 0 0 0 -0.09375,-0.09375 L 25.90625,31.625 a 0.23097786,0.23097786 0 0 0 -0.03125,-0.03125 0.23097786,0.23097786 0 0 0 -0.09375,0 0.23097786,0.23097786 0 0 0 -0.09375,0 0.23097786,0.23097786 0 0 0 -0.03125,0.03125 0.23097786,0.23097786 0 0 0 -0.03125,0.03125 c -2.791072,2.887894 -6.697076,4.6875 -11.03125,4.6875 -8.4789565,0 -15.375,-6.865353 -15.375,-15.34375 0,-8.478397 6.8960435,-15.34375 15.375,-15.34375 8.405032,0 15.225695,6.748474 15.34375,15.125 l -3.25,0 a 0.23097786,0.23097786 0 0 0 -0.03125,0 0.23097786,0.23097786 0 0 0 -0.09375,0.03125 0.23097786,0.23097786 0 0 0 -0.09375,0.09375 0.23097786,0.23097786 0 0 0 0,0.0625 0.23097786,0.23097786 0 0 0 0,0.09375 0.23097786,0.23097786 0 0 0 0.03125,0.0625 0.23097786,0.23097786 0 0 0 0,0.03125 l 5.5,7 a 0.23097786,0.23097786 0 0 0 0.0625,0.03125 0.23097786,0.23097786 0 0 0 0.0625,0.03125 0.23097786,0.23097786 0 0 0 0.09375,0 0.23097786,0.23097786 0 0 0 0.15625,-0.0625 l 5.5,-7 a 0.23097786,0.23097786 0 0 0 0.03125,-0.0625 0.23097786,0.23097786 0 0 0 0,-0.09375 0.23097786,0.23097786 0 0 0 0,-0.0625 A 0.23097786,0.23097786 0 0 0 37.875,20.875 0.23097786,0.23097786 0 0 0 37.84375,20.84375 0.23097786,0.23097786 0 0 0 37.8125,20.8125 0.23097786,0.23097786 0 0 0 37.75,20.78125 a 0.23097786,0.23097786 0 0 0 -0.0625,0 l -3.21875,0 C 34.333571,9.7698511 25.355581,0.90625 14.3125,0.90625 z m 0.375,10.125 c -1.214868,0 -2.44239,0.173834 -3.40625,1 -0.969153,0.830703 -1.40625,2.165291 -1.40625,3.8125 l 0,2.21875 -0.5625,0 C 8.582149,18.0625 8,18.678138 8,19.4375 l 0,8.5 c 0,0.759362 0.5902054,1.34375 1.3125,1.34375 l 10.84375,0 c 0.722295,0 1.28125,-0.591907 1.28125,-1.34375 l 0,-8.5 c 0,-0.751843 -0.550899,-1.375 -1.28125,-1.375 l -0.625,0 0,-2.21875 c 0,-1.650207 -0.470342,-2.983508 -1.4375,-3.8125 -0.96386,-0.826166 -2.191383,-1 -3.40625,-1 z m 0,2.4375 c 0.939788,0 1.533773,0.198591 1.8125,0.4375 0.292262,0.25051 0.5625,0.700773 0.5625,1.9375 l 0,2.21875 -4.71875,0 0,-2.21875 c 0,-1.236727 0.270237,-1.68699 0.5625,-1.9375 0.283837,-0.243289 0.841461,-0.4375 1.78125,-0.4375 z"
       transform="translate(8.5758928,3.3258926)" />
    <a
       id="a3028"
       transform="translate(0.642171,2.2711704)"
       style="stroke:#000000;stroke-width:0.01;stroke-miterlimit:4;stroke-opacity:1;stroke-dasharray:none" />
    <path
       style="font-size:medium;font-style:normal;font-variant:normal;font-weight:normal;font-stretch:normal;text-indent:0;text-align:start;text-decoration:none;line-height:normal;letter-spacing:normal;word-spacing:normal;text-transform:none;direction:ltr;block-progression:tb;writing-mode:lr-tb;text-anchor:start;baseline-shift:baseline;color:#000000;fill:url(#linearGradient3841);fill-opacity:1.0;stroke:none;stroke-width:0.20000000000000001;marker:none;visibility:visible;display:inline;overflow:visible;enable-background:accumulate;font-family:Sans;-inkscape-font-specification:Sans;stroke-opacity:1;stroke-miterlimit:4;stroke-dasharray:none"
       d="m 22.705352,3.9107146 c -11.002548,0 -19.9062452,8.9037064 -19.9062452,19.9062544 0,11.002548 8.9036972,19.9375 19.9062452,19.9375 5.87739,0 11.134802,-2.576722 14.78125,-6.625 l -3.3125,-2.53125 c -2.83258,2.930842 -6.789637,4.75 -11.1875,4.75 -8.603496,0 -15.5937452,-6.959004 -15.5937452,-15.5625 0,-8.603496 6.9902492,-15.5625044 15.5937452,-15.5625044 8.603496,0 15.5625,6.9590084 15.5625,15.5625044 l -3.46875,0 5.5,7 5.5,-7 -3.4375,0 C 42.625967,12.797554 33.69749,3.9107146 22.705352,3.9107146 z m 0.375,10.1250044 c -1.189829,0 -2.345532,0.193491 -3.25,0.96875 -0.904469,0.775259 -1.34375,2.01993 -1.34375,3.625 l 0,2.4375 -0.78125,0 c -0.59723,0 -1.09375,0.51636 -1.09375,1.15625 l 0,8.5 c 0,0.63989 0.49652,1.125 1.09375,1.125 l 10.84375,0 c 0.59723,0 1.0625,-0.48511 1.0625,-1.125 l 0,-8.5 c 0,-0.63989 -0.46527,-1.15625 -1.0625,-1.15625 l -0.84375,0 0,-2.4375 c 0,-1.60507 -0.470531,-2.849741 -1.375,-3.625 -0.904468,-0.775259 -2.060172,-0.96875 -3.25,-0.96875 z m 0,2 c 0.966236,0 1.615514,0.165976 1.96875,0.46875 0.353236,0.302774 0.625,0.855317 0.625,2.125 l 0,2.4375 -5.15625,0 0,-2.4375 c 0,-1.269683 0.271763,-1.822226 0.625,-2.125 0.353236,-0.302774 0.971263,-0.46875 1.9375,-0.46875 z"
       id="path3792"
       inkscape:connector-curvature="0" />
    <path
       style="opacity:0.67078193;fill:url(#linearGradient5293);fill-opacity:1;stroke:none"
       d="m 22.647324,3.84375 c -10.100656,0 -18.451938,7.507203 -19.7500024,17.25 1.3716065,0.632689 2.8823228,1.19509 4.5,1.6875 0.4883043,-8.163596 7.2442064,-14.625 15.5312524,-14.625 8.266031,0 14.983347,6.428272 15.5,14.5625 1.432841,-0.44709 2.763343,-0.972408 4,-1.53125 C 41.167887,11.398647 32.780701,3.84375 22.647324,3.84375 z m 0.375,10.125 c -1.189829,0 -2.345532,0.193491 -3.25,0.96875 -0.904469,0.775259 -1.34375,2.01993 -1.34375,3.625 l 0,2.4375 -0.78125,0 c -0.59723,0 -1.09375,0.51636 -1.09375,1.15625 l 0,2.4375 c 2.003073,0.211322 4.081268,0.34375 6.21875,0.34375 2.340929,0 4.60433,-0.15411 6.78125,-0.40625 l 0,-2.375 C 29.553574,21.51636 29.088304,21 28.491074,21 l -0.84375,0 0,-2.4375 c 0,-1.60507 -0.470531,-2.849741 -1.375,-3.625 -0.904468,-0.775259 -2.060172,-0.96875 -3.25,-0.96875 z m 0,2 c 0.966236,0 1.615514,0.165976 1.96875,0.46875 0.353236,0.302774 0.625,0.855317 0.625,2.125 l 0,2.4375 -5.15625,0 0,-2.4375 c 0,-1.269683 0.271763,-1.822226 0.625,-2.125 0.353236,-0.302774 0.971263,-0.46875 1.9375,-0.46875 z"
       id="path5248"
       inkscape:connector-curvature="0" />
  </g>
</svg>
