<?xml version="1.0" encoding="UTF-8" standalone="no"?>
<!-- Created with Inkscape (http://www.inkscape.org/) -->

<svg
   xmlns:dc="http://purl.org/dc/elements/1.1/"
   xmlns:cc="http://creativecommons.org/ns#"
   xmlns:rdf="http://www.w3.org/1999/02/22-rdf-syntax-ns#"
   xmlns:svg="http://www.w3.org/2000/svg"
   xmlns="http://www.w3.org/2000/svg"
   xmlns:xlink="http://www.w3.org/1999/xlink"
   xmlns:sodipodi="http://sodipodi.sourceforge.net/DTD/sodipodi-0.dtd"
   xmlns:inkscape="http://www.inkscape.org/namespaces/inkscape"
   width="48px"
   height="48px"
   id="svg2985"
   version="1.1"
   inkscape:version="0.48.1 r9760"
   sodipodi:docname="locked.svg"
   inkscape:export-filename="/home/penghuang/sources/garbage/arts/android/statusbar/lock-mdpi.png"
   inkscape:export-xdpi="33.27076"
   inkscape:export-ydpi="33.27076">
  <defs
     id="defs2987">
    <linearGradient
       id="linearGradient3767">
      <stop
         style="stop-color:#0a0a0a;stop-opacity:1;"
         offset="0"
         id="stop3769" />
      <stop
         style="stop-color:#696969;stop-opacity:1;"
         offset="1"
         id="stop3771" />
    </linearGradient>
    <linearGradient
       inkscape:collect="always"
       xlink:href="#linearGradient3767"
       id="linearGradient3016"
       gradientUnits="userSpaceOnUse"
       gradientTransform="matrix(1,0,0,1.0062745,-0.85714284,0.76613444)"
       x1="23"
       y1="43"
       x2="23"
       y2="3" />
    <linearGradient
       inkscape:collect="always"
       xlink:href="#linearGradient3767"
       id="linearGradient3029"
       gradientUnits="userSpaceOnUse"
       gradientTransform="matrix(0.82933911,0,0,0.87376889,3.5708193,3.9460828)"
       x1="23"
       y1="43"
       x2="23"
       y2="3" />
    <linearGradient
       inkscape:collect="always"
       xlink:href="#linearGradient3767"
       id="linearGradient3778"
       gradientUnits="userSpaceOnUse"
       gradientTransform="matrix(1,0,0,1.0062745,-0.85714284,0.76613444)"
       x1="22.857143"
       y1="46.939346"
       x2="22.857143"
       y2="-0.76135731" />
    <linearGradient
       inkscape:collect="always"
       xlink:href="#linearGradient3767"
       id="linearGradient3786"
       gradientUnits="userSpaceOnUse"
       gradientTransform="matrix(1,0,0,1.0062745,-0.85714284,0.76613444)"
       x1="22.857143"
       y1="46.939346"
       x2="22.857143"
       y2="-0.76135731" />
  </defs>
  <sodipodi:namedview
     id="base"
     pagecolor="#ffffff"
     bordercolor="#666666"
     borderopacity="1.0"
     inkscape:pageopacity="0.0"
     inkscape:pageshadow="2"
     inkscape:zoom="14"
     inkscape:cx="25.579349"
     inkscape:cy="25.330827"
     inkscape:current-layer="layer1"
     showgrid="true"
     inkscape:grid-bbox="true"
     inkscape:document-units="px"
     inkscape:snap-grids="true"
     inkscape:snap-to-guides="true"
     inkscape:window-width="901"
     inkscape:window-height="944"
     inkscape:window-x="1139"
     inkscape:window-y="218"
     inkscape:window-maximized="0">
    <inkscape:grid
       type="xygrid"
       id="grid3032"
       empspacing="5"
       visible="true"
       enabled="true"
       snapvisiblegridlinesonly="true" />
  </sodipodi:namedview>
  <metadata
     id="metadata2990">
    <rdf:RDF>
      <cc:Work
         rdf:about="">
        <dc:format>image/svg+xml</dc:format>
        <dc:type
           rdf:resource="http://purl.org/dc/dcmitype/StillImage" />
        <dc:title />
      </cc:Work>
    </rdf:RDF>
  </metadata>
  <g
     id="layer1"
     inkscape:label="Layer 1"
     inkscape:groupmode="layer"
     style="display:inline">
    <a
       id="a3028"
       transform="translate(0.642171,2.2711704)"
       style="stroke:#000000;stroke-width:0.01;stroke-miterlimit:4;stroke-opacity:1;stroke-dasharray:none" />
    <path
       style="font-size:medium;font-style:normal;font-variant:normal;font-weight:normal;font-stretch:normal;text-indent:0;text-align:start;text-decoration:none;line-height:normal;letter-spacing:normal;word-spacing:normal;text-transform:none;direction:ltr;block-progression:tb;writing-mode:lr-tb;text-anchor:start;baseline-shift:baseline;color:#000000;fill:url(#linearGradient3778);fill-opacity:1;stroke:none;stroke-width:0.20000000000000001;marker:none;visibility:visible;display:inline;overflow:visible;enable-background:accumulate;font-family:Sans;-inkscape-font-specification:Sans"
       d="M 22.71875,3.90625 C 11.716202,3.90625 2.8125,12.865916 2.8125,23.9375 2.8125,35.009084 11.716202,44 22.71875,44 28.59614,44 33.853552,41.417429 37.5,37.34375 l -3.3125,-2.5625 C 31.35492,37.730482 27.397863,39.5625 23,39.5625 14.396504,39.5625 7.40625,32.563729 7.40625,23.90625 7.40625,15.248771 14.396504,8.25 23,8.25 c 8.603496,0 15.5625,6.998771 15.5625,15.65625 l -3.46875,0 5.5,7.03125 5.5,-7.03125 -3.4375,0 c -0.01689,-11.05711 -8.945362,-20 -19.9375,-20 z"
       id="path3784" />
    <path
       style="font-size:medium;font-style:normal;font-variant:normal;font-weight:normal;font-stretch:normal;text-indent:0;text-align:start;text-decoration:none;line-height:normal;letter-spacing:normal;word-spacing:normal;text-transform:none;direction:ltr;block-progression:tb;writing-mode:lr-tb;text-anchor:start;baseline-shift:baseline;color:#000000;fill:url(#linearGradient3786);fill-opacity:1;stroke:none;stroke-width:0.20000000000000001;marker:none;visibility:visible;display:inline;overflow:visible;enable-background:accumulate;font-family:Sans;-inkscape-font-specification:Sans"
       d="M 23.0625 12.59375 C 21.708918 12.59375 20.403947 12.820796 19.375 13.75 C 18.34605 14.679205 17.84375 16.169956 17.84375 18.09375 L 17.84375 21 L 16.96875 21 C 16.289325 21 15.71875 21.639295 15.71875 22.40625 L 15.71875 32.59375 C 15.71875 33.360706 16.289325 33.90625 16.96875 33.90625 L 29.28125 33.90625 C 29.960675 33.90625 30.46875 33.360706 30.46875 32.59375 L 30.46875 22.40625 C 30.46875 21.639295 29.960675 21 29.28125 21 L 28.34375 21 L 28.34375 18.09375 C 28.34375 16.169956 27.778948 14.679205 26.75 13.75 C 25.721052 12.820796 24.416082 12.59375 23.0625 12.59375 z M 23.0625 14.96875 C 24.161718 14.96875 24.91065 15.168354 25.3125 15.53125 C 25.714352 15.894146 26 16.571942 26 18.09375 L 26 21 L 20.15625 21 L 20.15625 18.09375 C 20.15625 16.571942 20.441897 15.894146 20.84375 15.53125 C 21.245601 15.168354 21.963283 14.96875 23.0625 14.96875 z "
       id="path3782" />
  </g>
</svg>
