<?xml version="1.0" encoding="UTF-8" standalone="no"?>
<!-- Created with Inkscape (http://www.inkscape.org/) -->

<svg
   xmlns:dc="http://purl.org/dc/elements/1.1/"
   xmlns:cc="http://creativecommons.org/ns#"
   xmlns:rdf="http://www.w3.org/1999/02/22-rdf-syntax-ns#"
   xmlns:svg="http://www.w3.org/2000/svg"
   xmlns="http://www.w3.org/2000/svg"
   xmlns:xlink="http://www.w3.org/1999/xlink"
   xmlns:sodipodi="http://sodipodi.sourceforge.net/DTD/sodipodi-0.dtd"
   xmlns:inkscape="http://www.inkscape.org/namespaces/inkscape"
   width="48px"
   height="48px"
   id="svg2985"
   version="1.1"
   inkscape:version="0.48.1 r9760"
   sodipodi:docname="Lock.svg">
  <defs
     id="defs2987">
    <linearGradient
       id="linearGradient6657">
      <stop
         id="stop6659"
         offset="0"
         style="stop-color:#8d8d8d;stop-opacity:1" />
      <stop
         id="stop6661"
         offset="1"
         style="stop-color:#4a4a4a;stop-opacity:1;" />
    </linearGradient>
    <linearGradient
       id="linearGradient6520">
      <stop
         style="stop-color:#bcbcbc;stop-opacity:1;"
         offset="0"
         id="stop6522" />
      <stop
         style="stop-color:#4a4a4a;stop-opacity:1;"
         offset="1"
         id="stop6524" />
    </linearGradient>
    <linearGradient
       inkscape:collect="always"
       xlink:href="#linearGradient6520"
       id="linearGradient6528"
       x1="10"
       y1="18.59375"
       x2="28.09375"
       y2="18.59375"
       gradientUnits="userSpaceOnUse"
       gradientTransform="translate(4.40625,3.2857144)" />
  </defs>
  <sodipodi:namedview
     id="base"
     pagecolor="#ffffff"
     bordercolor="#666666"
     borderopacity="1.0"
     inkscape:pageopacity="0.0"
     inkscape:pageshadow="2"
     inkscape:zoom="14"
     inkscape:cx="25.90502"
     inkscape:cy="21.546854"
     inkscape:current-layer="layer1"
     showgrid="true"
     inkscape:grid-bbox="true"
     inkscape:document-units="px"
     inkscape:snap-grids="true"
     inkscape:snap-to-guides="true"
     inkscape:window-width="1225"
     inkscape:window-height="1186"
     inkscape:window-x="1009"
     inkscape:window-y="81"
     inkscape:window-maximized="0">
    <inkscape:grid
       type="xygrid"
       id="grid3032"
       empspacing="5"
       visible="true"
       enabled="true"
       snapvisiblegridlinesonly="true" />
  </sodipodi:namedview>
  <metadata
     id="metadata2990">
    <rdf:RDF>
      <cc:Work
         rdf:about="">
        <dc:format>image/svg+xml</dc:format>
        <dc:type
           rdf:resource="http://purl.org/dc/dcmitype/StillImage" />
        <dc:title></dc:title>
      </cc:Work>
    </rdf:RDF>
  </metadata>
  <g
     id="layer1"
     inkscape:label="Layer 1"
     inkscape:groupmode="layer"
     style="display:inline">
    <a
       id="a3028"
       transform="translate(0.642171,2.2711704)"
       style="stroke:#000000;stroke-width:0.01;stroke-miterlimit:4;stroke-opacity:1;stroke-dasharray:none" />
    <path
       style="font-size:medium;font-style:normal;font-variant:normal;font-weight:normal;font-stretch:normal;text-indent:0;text-align:start;text-decoration:none;line-height:normal;letter-spacing:normal;word-spacing:normal;text-transform:none;direction:ltr;block-progression:tb;writing-mode:lr-tb;text-anchor:start;baseline-shift:baseline;color:#000000;fill:#707070;fill-opacity:1;stroke:#000000;stroke-width:0.20000000000000001;stroke-miterlimit:4;stroke-opacity:1;stroke-dasharray:none;marker:none;visibility:visible;display:inline;overflow:visible;enable-background:accumulate;font-family:Sans;-inkscape-font-specification:Sans"
       d="m 23.5625,3.125 c -11.002548,0 -19.90625,8.903702 -19.90625,19.90625 0,11.002548 8.903702,19.9375 19.90625,19.9375 5.87739,0 11.134802,-2.576722 14.78125,-6.625 l -3.3125,-2.53125 c -2.83258,2.930842 -6.789637,4.75 -11.1875,4.75 C 15.240254,38.5625 8.25,31.603496 8.25,23 c 0,-8.603496 6.990254,-15.5625 15.59375,-15.5625 8.603496,0 15.5625,6.959004 15.5625,15.5625 l -3.46875,0 5.5,7 5.5,-7 L 43.5,23 C 43.483115,12.011835 34.554638,3.125 23.5625,3.125 z m -0.15625,6.34375 c -1.655556,0 -3.272751,0.2650354 -4.53125,1.34375 C 17.616501,11.891213 17,13.641667 17,15.875 l 0,3.40625 -1.09375,0 c -0.831,0 -1.5,0.703393 -1.5,1.59375 l 0,11.8125 c 0,0.890357 0.669,1.59375 1.5,1.59375 l 15.09375,0 c 0.831,0 1.5,-0.703393 1.5,-1.59375 l 0,-11.8125 c 0,-0.890357 -0.669,-1.59375 -1.5,-1.59375 l -1.1875,0 0,-3.40625 c 0,-2.233333 -0.616501,-3.983787 -1.875,-5.0625 C 26.679001,9.7337854 25.061806,9.46875 23.40625,9.46875 z m 0,2.8125 c 1.344444,0 2.227249,0.234963 2.71875,0.65625 C 26.616501,13.358787 27,14.108333 27,15.875 l 0,3.40625 -7.1875,0 0,-3.40625 c 0,-1.766667 0.383499,-2.516213 0.875,-2.9375 0.491501,-0.421287 1.374306,-0.65625 2.71875,-0.65625 z"
       id="path3035"
       inkscape:connector-curvature="0" />
  </g>
</svg>
